<?xml version="1.0" standalone="no"?>
<!DOCTYPE svg PUBLIC "-//W3C//DTD SVG 20010904//EN"
 "http://www.w3.org/TR/2001/REC-SVG-20010904/DTD/svg10.dtd">
<svg version="1.0" xmlns="http://www.w3.org/2000/svg"
 width="16.000000pt" height="16.000000pt" viewBox="0 0 16.000000 16.000000"
 preserveAspectRatio="xMidYMid meet">
<metadata>
Created by potrace 1.11, written by Peter Selinger 2001-2013
</metadata>
<g transform="translate(0.000000,16.000000) scale(0.003200,-0.003200)"
fill="#000000" stroke="none">
<path d="M10 2495 l0 -2485 2490 0 2490 0 0 2485 0 2485 -2490 0 -2490 0 0
-2485z m2763 1470 c20 -8 57 -15 82 -15 25 0 45 -4 45 -10 0 -5 15 -10 33 -10
17 0 41 -7 51 -15 11 -8 30 -15 43 -15 13 0 23 -4 23 -10 0 -5 9 -10 20 -10
11 0 23 -6 26 -13 2 -7 14 -14 26 -14 12 -1 24 -6 27 -11 3 -5 21 -17 39 -27
17 -11 32 -23 32 -27 0 -4 7 -8 15 -8 8 0 15 -5 15 -11 0 -5 5 -7 10 -4 6 3
10 1 10 -4 0 -6 7 -11 15 -11 8 0 14 -6 12 -12 -1 -7 4 -12 11 -11 6 2 12 -4
12 -12 0 -8 5 -15 11 -15 14 0 39 -25 39 -39 0 -6 7 -11 15 -11 9 0 15 -9 15
-22 0 -14 16 -37 40 -58 22 -19 40 -43 40 -52 0 -10 5 -18 10 -18 6 0 10 -5
10 -11 0 -6 7 -17 15 -25 8 -9 15 -27 15 -42 0 -21 2 -24 10 -12 8 12 10 9 10
-12 0 -16 -1 -31 -2 -34 -2 -3 5 -10 15 -15 11 -7 17 -22 17 -45 0 -21 4 -33
10 -29 6 4 10 -13 10 -43 0 -27 7 -66 15 -85 13 -31 15 -133 15 -700 0 -565
-2 -671 -15 -707 -8 -23 -15 -62 -15 -86 0 -24 -4 -44 -10 -44 -5 0 -10 -14
-10 -31 0 -17 -7 -37 -15 -45 -8 -9 -15 -29 -15 -45 0 -18 -4 -28 -10 -24 -5
3 -10 -3 -10 -14 0 -11 -7 -26 -15 -35 -8 -8 -15 -22 -15 -30 0 -9 -4 -16 -10
-16 -5 0 -10 -9 -10 -20 0 -11 -7 -20 -15 -20 -8 0 -15 -7 -15 -15 0 -9 -11
-26 -25 -39 -14 -13 -25 -28 -25 -35 0 -6 -7 -11 -15 -11 -8 0 -15 -7 -15 -16
0 -8 -4 -12 -10 -9 -5 3 -10 -1 -10 -9 0 -9 -7 -16 -15 -16 -8 0 -14 -6 -13
-13 2 -6 -3 -11 -9 -9 -7 1 -13 -5 -13 -13 0 -8 -6 -15 -13 -15 -7 0 -21 -11
-31 -25 -10 -14 -27 -25 -37 -25 -11 0 -19 -4 -19 -10 0 -5 -7 -10 -15 -10 -8
0 -15 -7 -15 -15 0 -9 -9 -15 -25 -15 -14 0 -25 -4 -25 -9 0 -5 -11 -12 -25
-15 -14 -4 -25 -11 -25 -16 0 -6 -11 -10 -25 -10 -14 0 -25 -4 -25 -10 0 -5
-15 -10 -32 -10 -18 0 -42 -7 -52 -15 -13 -10 -43 -15 -84 -15 -39 0 -61 -4
-57 -10 4 -6 -27 -10 -85 -10 -58 0 -89 4 -85 10 4 6 -12 10 -42 10 -26 0 -57
7 -67 15 -11 8 -30 15 -43 15 -13 0 -23 4 -23 9 0 5 -8 12 -17 15 -33 13 -63
31 -63 38 0 5 -7 8 -15 8 -8 0 -15 5 -15 11 0 14 -25 39 -39 39 -6 0 -11 6
-11 13 0 7 -11 21 -25 31 -14 10 -25 27 -25 37 0 11 -4 19 -10 19 -5 0 -10 5
-10 11 0 6 -7 17 -15 25 -8 9 -15 26 -15 40 0 13 -4 24 -10 24 -5 0 -10 18
-10 39 0 22 -5 41 -11 43 -5 2 -13 38 -16 79 -4 60 -2 84 11 109 9 18 16 46
16 62 0 15 5 28 10 28 6 0 10 11 10 25 0 14 6 25 13 25 7 0 13 9 14 20 2 22
25 50 42 50 6 0 11 5 11 11 0 14 25 39 39 39 6 0 11 7 11 15 0 8 7 15 15 15 8
0 15 5 15 10 0 6 8 10 19 10 10 0 24 7 31 15 7 8 25 15 40 15 16 0 30 4 32 9
3 9 94 15 201 12 36 0 56 -5 52 -11 -3 -5 3 -10 14 -10 22 0 81 -31 81 -42 0
-5 7 -8 15 -8 8 0 15 -7 15 -15 0 -8 6 -14 13 -13 6 2 11 -3 9 -9 -1 -7 5 -13
13 -13 8 0 15 -7 15 -15 0 -8 3 -15 8 -15 11 0 42 -59 42 -81 0 -11 5 -17 10
-14 6 4 10 -27 10 -84 l0 -91 -46 0 c-57 0 -72 15 -75 74 -2 25 -6 46 -11 46
-4 0 -11 12 -14 27 -7 26 -13 36 -41 68 -7 7 -13 18 -13 24 0 6 -3 10 -7 10
-20 -3 -34 2 -28 11 3 6 -5 10 -19 10 -13 0 -31 7 -40 15 -20 20 -134 20 -160
0 -11 -8 -33 -15 -49 -15 -15 0 -26 -4 -23 -9 3 -5 -2 -12 -12 -15 -29 -11
-68 -36 -55 -36 7 0 -4 -15 -23 -34 -19 -19 -36 -44 -37 -55 -1 -12 -7 -21
-14 -21 -10 0 -13 -31 -13 -130 0 -85 4 -130 11 -130 5 0 7 -4 4 -10 -3 -5 -1
-10 4 -10 6 0 11 -11 11 -25 0 -14 5 -25 10 -25 6 0 10 -7 10 -15 0 -8 4 -15
10 -15 5 0 12 -11 16 -25 3 -13 11 -23 18 -22 6 1 10 -4 8 -10 -1 -7 5 -13 13
-13 8 0 15 -4 15 -10 0 -5 11 -12 25 -16 14 -3 25 -10 25 -15 0 -5 7 -9 15 -9
8 0 15 -5 15 -11 0 -5 5 -7 10 -4 6 3 10 1 10 -4 0 -6 11 -11 25 -11 14 0 25
-4 25 -9 0 -4 30 -11 68 -14 84 -7 243 3 236 14 -3 5 12 9 33 9 22 0 48 7 59
15 10 8 27 15 37 15 9 0 17 5 17 10 0 6 11 10 24 10 13 0 26 7 30 15 3 8 15
15 26 15 11 0 20 5 20 10 0 6 7 10 15 10 8 0 15 4 15 9 0 5 9 13 20 16 11 4
18 11 15 16 -6 8 8 13 28 10 4 0 7 6 7 14 0 8 7 15 16 15 8 0 12 5 9 10 -3 6
1 10 9 10 9 0 16 7 16 15 0 8 4 15 10 15 5 0 12 11 16 25 3 14 10 25 15 25 5
0 9 7 9 15 0 8 7 15 15 15 8 0 15 9 15 21 0 11 5 17 10 14 6 -3 10 3 10 13 0
11 7 22 15 26 8 3 15 17 15 31 0 15 4 24 9 21 5 -3 11 12 15 35 4 22 11 37 16
34 6 -3 10 5 10 18 0 14 7 41 15 60 8 20 15 64 15 97 0 38 4 59 10 55 7 -4 10
211 10 637 0 419 -4 638 -10 628 -7 -11 -10 5 -10 53 0 37 0 69 0 72 1 3 -6
13 -15 21 -8 9 -15 27 -15 40 0 14 -7 32 -15 40 -8 9 -15 26 -15 40 0 13 -4
24 -10 24 -5 0 -10 7 -10 15 0 8 -5 15 -11 15 -5 0 -7 5 -4 10 3 6 1 10 -4 10
-6 0 -11 7 -11 15 0 8 -4 15 -10 15 -5 0 -10 6 -10 13 0 7 -11 24 -25 39 -14
15 -25 32 -25 38 0 5 -7 10 -15 10 -8 0 -15 7 -15 16 0 8 -4 12 -10 9 -5 -3
-10 1 -10 9 0 9 -7 16 -15 16 -8 0 -15 5 -15 11 0 14 -25 39 -39 39 -6 0 -11
7 -11 15 0 8 -3 14 -7 14 -20 -3 -34 2 -28 11 3 6 -3 10 -13 10 -11 0 -22 7
-26 15 -3 8 -15 15 -26 15 -11 0 -20 5 -20 10 0 6 -11 10 -24 10 -13 0 -26 7
-30 15 -3 9 -18 15 -36 15 -18 0 -29 4 -25 10 5 8 -58 15 -68 8 -2 -2 -11 5
-21 15 -13 13 -34 17 -82 17 -36 0 -64 4 -64 10 0 6 -117 10 -332 9 -195 0
-325 -4 -313 -9 14 -6 1 -9 -45 -10 -36 0 -76 -7 -90 -15 -14 -8 -42 -14 -62
-15 -21 0 -38 -4 -38 -10 0 -5 -11 -10 -24 -10 -13 0 -26 -7 -30 -15 -3 -8
-15 -15 -26 -15 -11 0 -20 -4 -20 -10 0 -5 -11 -10 -25 -10 -16 0 -25 -6 -25
-15 0 -9 -9 -15 -21 -15 -12 0 -36 -16 -55 -35 -18 -19 -37 -35 -43 -35 -6 0
-11 -4 -11 -9 0 -14 -60 -71 -61 -58 0 7 -5 2 -11 -10 -6 -13 -15 -23 -20 -23
-4 0 -8 -7 -8 -15 0 -8 -7 -15 -15 -15 -8 0 -15 -7 -15 -15 0 -8 -4 -15 -10
-15 -5 0 -10 -9 -10 -20 0 -11 -6 -23 -13 -26 -7 -2 -14 -14 -14 -27 -1 -12
-7 -23 -13 -25 -5 -2 -10 -12 -10 -23 0 -11 -7 -22 -15 -25 -9 -4 -15 -19 -15
-40 0 -19 -4 -34 -8 -34 -14 0 -23 -185 -15 -304 3 -58 10 -103 14 -100 5 3 9
-13 9 -35 0 -30 4 -41 15 -41 9 0 15 -9 15 -25 0 -14 5 -25 10 -25 6 0 10 -11
10 -25 0 -14 4 -25 10 -25 5 0 12 -11 16 -25 3 -14 10 -25 15 -25 5 0 9 -5 9
-10 0 -10 8 -22 38 -55 6 -7 12 -18 12 -24 0 -6 5 -11 10 -11 6 0 31 -22 58
-48 26 -27 54 -52 62 -56 40 -19 59 -33 53 -39 -5 -6 12 -9 34 -6 3 0 10 -6
15 -15 5 -9 18 -16 28 -16 11 0 20 -4 20 -10 0 -5 10 -10 23 -10 12 0 31 -7
41 -15 11 -8 34 -15 52 -15 18 0 34 -5 36 -10 4 -14 291 -15 296 -1 2 6 12 11
22 11 21 0 80 31 80 43 0 4 5 7 10 7 12 0 32 15 57 42 9 9 20 15 25 12 4 -3 8
6 8 20 0 16 6 26 15 26 8 0 15 7 15 15 0 8 5 15 10 15 6 0 10 11 10 24 0 14 6
31 13 38 7 7 21 50 30 96 9 46 23 89 31 97 18 19 87 20 83 3 -1 -7 4 -12 11
-11 9 2 12 -17 12 -72 0 -43 -4 -75 -10 -75 -5 0 -10 -16 -10 -36 0 -19 -7
-42 -15 -50 -8 -9 -15 -26 -15 -40 0 -13 -4 -24 -9 -24 -5 0 -12 -11 -15 -25
-4 -14 -11 -25 -16 -25 -6 0 -10 -5 -10 -10 0 -11 -56 -70 -66 -70 -10 0 -34
-28 -34 -39 0 -6 -7 -11 -15 -11 -8 0 -15 -4 -15 -10 0 -5 -6 -10 -14 -10 -7
0 -19 -7 -26 -15 -7 -8 -21 -15 -31 -15 -11 0 -19 -4 -19 -10 0 -5 -10 -10
-22 -10 -13 0 -32 -7 -42 -15 -12 -9 -42 -15 -74 -15 -33 0 -51 -4 -47 -10 4
-6 -19 -10 -62 -9 -47 0 -62 3 -48 9 14 6 -6 9 -60 10 -49 0 -90 6 -105 15
-14 8 -37 14 -52 15 -16 0 -28 5 -28 10 0 6 -11 10 -24 10 -14 0 -31 7 -40 15
-8 8 -24 15 -35 15 -12 0 -21 5 -21 10 0 6 -9 10 -20 10 -11 0 -23 7 -26 15
-4 8 -13 15 -21 15 -8 0 -11 5 -8 10 4 6 -5 10 -19 10 -16 0 -26 6 -26 15 0 8
-7 15 -15 15 -8 0 -15 5 -15 10 0 6 -7 10 -15 10 -8 0 -15 5 -15 11 0 5 -4 8
-9 4 -5 -3 -12 4 -16 14 -3 11 -15 23 -25 26 -10 3 -22 15 -25 26 -4 10 -11
19 -16 19 -5 0 -9 7 -9 16 0 8 -4 12 -10 9 -5 -3 -10 -1 -10 5 0 6 -11 21 -25
34 -14 13 -25 33 -25 45 0 12 -6 21 -15 21 -9 0 -15 9 -15 25 0 14 -4 25 -10
25 -5 0 -10 9 -10 20 0 11 -7 23 -15 26 -8 4 -15 17 -15 30 0 13 -4 24 -10 24
-5 0 -10 15 -10 33 0 18 -7 42 -15 53 -8 10 -15 40 -15 67 0 26 -4 47 -10 47
-6 0 -10 48 -10 125 0 77 4 125 10 125 6 0 10 22 10 48 0 27 6 57 15 68 8 10
15 34 15 52 0 17 5 32 10 32 6 0 10 11 10 24 0 13 7 26 15 30 8 3 15 17 15 31
0 15 4 24 9 21 5 -3 12 5 15 19 4 14 11 25 16 25 6 0 10 7 10 15 0 8 4 15 9
15 5 0 11 8 15 18 12 36 48 82 65 82 6 0 11 5 11 11 0 14 25 39 39 39 6 0 11
5 11 11 0 17 46 53 83 65 9 4 17 10 17 15 0 5 7 9 15 9 8 0 15 5 15 11 0 5 5
7 10 4 6 -3 10 -1 10 4 0 6 7 11 15 11 8 0 15 4 15 9 0 5 11 12 25 15 14 4 25
11 25 16 0 6 11 10 25 10 14 0 25 5 25 10 0 6 11 10 24 10 14 0 31 7 40 15 8
8 31 15 51 15 22 0 34 4 30 10 -4 6 13 10 43 10 27 0 65 7 83 15 51 21 730 22
782 0z m333 -1170 c10 -14 24 -25 31 -25 8 0 13 -13 13 -31 0 -17 4 -28 10
-24 6 3 10 -1 10 -10 0 -9 -4 -13 -10 -10 -6 4 -10 -7 -10 -24 0 -18 -5 -31
-13 -31 -7 0 -21 -11 -31 -25 -40 -53 -128 -22 -164 59 -16 35 -3 75 38 118
35 37 99 39 126 3z"/>
<path d="M2272 1460 c0 -14 2 -19 5 -12 2 6 2 18 0 25 -3 6 -5 1 -5 -13z"/>
</g>
</svg>
